<svg width="23" height="23" viewBox="0 0 23 23" fill="none" xmlns="http://www.w3.org/2000/svg">
<g clip-path="url(#clip0_58_493)">
<path fill-rule="evenodd" clip-rule="evenodd" d="M22.2619 7.79168C22.2619 9.02072 21.2397 10.0179 19.9782 10.0179C18.9152 10.0179 18.021 9.30827 17.7669 8.34823H14.5797C14.0213 8.34823 13.5454 8.74152 13.4536 9.27859L13.3599 9.82772C13.2722 10.3354 13.0097 10.7965 12.6179 11.131C13 11.4593 13.2709 11.9138 13.3599 12.4342L13.4527 12.9833C13.5006 13.2466 13.6402 13.4844 13.8466 13.6547C14.053 13.825 14.313 13.9167 14.5806 13.9137H15.485C15.7382 12.9537 16.6324 12.2441 17.6964 12.2441C18.9579 12.2441 19.9791 13.2412 19.9791 14.4703C19.9791 15.6993 18.956 16.6964 17.6964 16.6964C16.6324 16.6964 15.7392 15.9868 15.485 15.0268H14.5806C13.4638 15.0268 12.5121 14.2402 12.3285 13.167L12.2348 12.6179C12.1869 12.3549 12.0476 12.1174 11.8416 11.9471C11.6355 11.7769 11.376 11.6849 11.1087 11.6875H10.1755C9.88985 12.6003 9.01978 13.2644 7.99017 13.2644C6.96056 13.2644 6.09049 12.6003 5.80572 11.6875H4.46815C4.18246 12.6003 3.31239 13.2644 2.2837 13.2644C1.02219 13.2644 0 12.2673 0 11.0382C0 9.80917 1.02219 8.81202 2.2837 8.81202C3.38103 8.81202 4.2984 9.568 4.51731 10.5744H5.75748C5.97639 9.568 6.89377 8.81202 7.9911 8.81202C9.08935 8.81202 10.0058 9.568 10.2247 10.5744H11.1078C11.6652 10.5744 12.142 10.1811 12.2329 9.64406L12.3275 9.09493C12.5112 8.02172 13.4638 7.23513 14.5797 7.23513H17.7669C18.021 6.27509 18.9152 5.56549 19.9782 5.56549C21.2397 5.56549 22.2619 6.56264 22.2619 7.79168ZM21.121 7.79168C21.121 8.40667 20.609 8.90478 19.9782 8.90478C19.3475 8.90478 18.8373 8.40667 18.8373 7.79168C18.8373 7.1767 19.3475 6.67859 19.9782 6.67859C20.609 6.67859 21.1201 7.1767 21.1201 7.79168H21.121ZM2.28277 12.1513C2.91353 12.1513 3.4237 11.6532 3.4237 11.0382C3.4237 10.4232 2.91353 9.92511 2.28277 9.92511C1.65202 9.92511 1.14092 10.4232 1.14092 11.0382C1.14092 11.6532 1.65202 12.1513 2.28277 12.1513ZM7.99017 12.1513C8.62092 12.1513 9.13202 11.6532 9.13202 11.0382C9.13202 10.4232 8.62185 9.92511 7.9911 9.92511C7.36034 9.92511 6.84925 10.4232 6.84925 11.0382C6.84925 11.6532 7.35942 12.1513 7.99017 12.1513ZM17.6945 15.5833C18.3253 15.5833 18.8354 15.0852 18.8354 14.4703C18.8354 13.8553 18.3253 13.3572 17.6945 13.3572C17.0638 13.3572 16.5536 13.8553 16.5536 14.4703C16.5536 15.0852 17.0638 15.5833 17.6945 15.5833Z" fill="#EA4B71"/>
</g>
<defs>
<clipPath id="clip0_58_493">
<rect width="22.2619" height="22.2619" fill="white"/>
</clipPath>
</defs>
</svg>
